Poster : http://i1134.photobucket.com/albums/m620/chevyman781/MV5BODA5NzU3NjAwMl5BMl5BanBnXkFtZTc.jpg


Proudly Presents!!! 


The.Wicker.Tree.2010.480p.BRRip.QCE.XviD.AC3-Voltage



Source........::: Maskerade 2010 1080p BluRay x264-UNVEiL-thanks
Encoder.......::: chevyman78
Notes.........::: QPE - Quality Preserved Encodes. is a new technique/script to increase compression
while still maintaining sharpness/colour and quality .please leave your feedback




Video 





General
Complete name : C:UsersrootDesktopMaskerade.2010.720p.BRRip.QPE.XviD.AC3-VoltageMaskerade.2010.720p.BRRip.QPE.XviD.AC3-Voltage.avi
Format : AVI
Format/Info : Audio Video Interleave
Format profile : OpenDML
File size : 2.48 GiB
Duration : 1h 29mn
Overall bit rate : 3 956 Kbps
Writing application : VirtualDubMod 1.5.10.2 (build 2540/release)
Writing library : VirtualDubMod build 2540/release

Video
ID : 0
Format : MPEG-4 Visual
Format profile : Advanced Simple@L5
Format settings, BVOP : 2
Format settings, QPel : No
Format settings, GMC : No warppoints
Format settings, Matrix : Default (H.263)
Codec ID : XVID
Codec ID/Hint : XviD
Duration : 1h 29mn
Bit rate : 3 499 Kbps
Width : 1 280 pixels
Height : 720 pixels
Display aspect ratio : 16:9
Frame rate : 19.181 fps
Color space : YUV
Chroma subsampling : 4:2:0
Bit depth : 8 bits
Scan type : Progressive
Compression mode : Lossy
Bits/(Pixel*Frame) : 0.198
Stream size : 2.20 GiB (88%)
Writing library : XviD 1.2.1 (UTC 2008-12-04)



Audio 


Audio
ID : 1
Format : AC-3
Format/Info : Audio Coding 3
Mode extension : CM (complete main)
Codec ID : 2000
Duration : 1h 29mn
Bit rate mode : Constant
Bit rate : 448 Kbps
Channel(s) : 6 channels
Channel positions : Front: L C R, Side: L R, LFE
Sampling rate : 48.0 KHz
Bit depth : 16 bits
Compression mode : Lossy
Stream size : 288 MiB (11%)
Alignment : Split accross interleaves
Interleave, duration : 52 ms (1.00 video frame)
Interleave, preload duration : 500 ms


Info 


IMDB LINK....:: http://www.imdb.com/title/tt1577055/
Audio.............:: English
Subtitles........:: None 


Screens 

[img]http://i.imgbox.com/aau2wLVk.png[/img]
[img]http://i.imgbox.com/aadfe9Re.png[/img]
[img]http://i.imgbox.com/aayxOCeu.png[/img]
[img]http://i.imgbox.com/aaj0nDAq.png[/img]
[img]http://i.imgbox.com/aawoamRn.png[/img]